<svg width="94" height="94" viewBox="0 0 94 94" fill="none" xmlns="http://www.w3.org/2000/svg">
<path d="M46.9999 0C21.0425 0 0 21.0425 0 46.9999C0 72.9573 21.0425 93.9998 46.9999 93.9998C72.9573 93.9998 93.9998 72.9573 93.9998 46.9999C93.9707 21.0548 72.9452 0.0293111 46.9999 0Z" fill="#02DAFF"/>
<path d="M55.5826 20.026C51.9161 16.5223 46.1423 16.5223 42.4758 20.026C38.8563 23.6431 38.8546 29.5096 42.4717 33.1288C42.4731 33.1302 42.4744 33.1315 42.4758 33.1329L46.154 36.8111H22.4783C16.8354 36.8111 12.261 41.3856 12.261 47.0286C12.261 52.6715 16.8354 57.2459 22.4783 57.2459H46.154L42.4758 60.9242C39.119 64.7892 39.5311 70.6436 43.3961 74.0006C46.8941 77.0386 52.0981 77.0273 55.5826 73.974L78.2367 51.3199C80.6299 48.926 80.6299 45.0454 78.2367 42.6515L55.5826 20.026Z" fill="#FAFAFA"/>
</svg>
