<svg width="1259" height="1329" viewBox="0 0 1259 1329" fill="none" xmlns="http://www.w3.org/2000/svg">
<g filter="url(#filter0_d)">
<path fill-rule="evenodd" clip-rule="evenodd" d="M626.933 11.0018C763.461 11.4739 885.2 96.3781 983.7 190.927C1072.81 276.46 1109.24 395.43 1149.19 512.31C1189.84 631.234 1261.18 756.095 1217.12 873.796C1173.39 990.602 1035.94 1033.46 929.652 1098.71C832.844 1158.14 738.461 1214.55 626.933 1236.11C492.189 1262.16 324.143 1330.09 225.294 1234.88C123.397 1136.73 232.739 958.632 196.783 821.794C164.317 698.238 14.6177 614.65 28.9662 487.708C43.6745 357.583 165.98 270.081 268.371 188.453C375.264 103.237 490.235 10.5292 626.933 11.0018Z" fill="#77BEC2"/>
</g>
<path d="M436.832 857.848C436.832 858.808 436.568 859.696 436.04 860.512L420.992 882.04V899.608C420.992 900.856 420.584 901.912 419.768 902.776C418.952 903.592 417.968 904 416.816 904C415.616 904 414.584 903.592 413.72 902.776C412.904 901.912 412.496 900.856 412.496 899.608V881.032L397.52 861.16C396.656 860.008 396.224 858.88 396.224 857.776C396.224 856.528 396.704 855.496 397.664 854.68C398.672 853.816 399.728 853.384 400.832 853.384C402.176 853.384 403.352 854.056 404.36 855.4L417.032 872.896L428.912 855.544C429.92 854.104 431.12 853.384 432.512 853.384C433.664 853.384 434.672 853.816 435.536 854.68C436.4 855.544 436.832 856.6 436.832 857.848ZM487.76 878.8C487.76 883.552 486.704 887.92 484.592 891.904C482.48 895.84 479.552 898.96 475.808 901.264C472.112 903.568 467.936 904.72 463.28 904.72C458.624 904.72 454.424 903.568 450.68 901.264C446.984 898.96 444.08 895.84 441.968 891.904C439.904 887.92 438.872 883.552 438.872 878.8C438.872 874.048 439.904 869.704 441.968 865.768C444.08 861.784 446.984 858.64 450.68 856.336C454.424 854.032 458.624 852.88 463.28 852.88C467.936 852.88 472.112 854.032 475.808 856.336C479.552 858.64 482.48 861.784 484.592 865.768C486.704 869.704 487.76 874.048 487.76 878.8ZM478.4 878.8C478.4 875.584 477.752 872.68 476.456 870.088C475.16 867.448 473.36 865.36 471.056 863.824C468.752 862.288 466.16 861.52 463.28 861.52C460.352 861.52 457.736 862.288 455.432 863.824C453.176 865.312 451.4 867.376 450.104 870.016C448.856 872.656 448.232 875.584 448.232 878.8C448.232 882.016 448.856 884.944 450.104 887.584C451.4 890.224 453.176 892.312 455.432 893.848C457.736 895.336 460.352 896.08 463.28 896.08C466.16 896.08 468.752 895.312 471.056 893.776C473.36 892.24 475.16 890.176 476.456 887.584C477.752 884.944 478.4 882.016 478.4 878.8ZM531.809 853.528C533.057 853.528 534.065 853.936 534.833 854.752C535.601 855.568 535.985 856.624 535.985 857.92V883.984C535.985 887.968 535.145 891.496 533.465 894.568C531.785 897.64 529.433 900.04 526.409 901.768C523.385 903.496 519.929 904.36 516.041 904.36C512.153 904.36 508.673 903.496 505.601 901.768C502.577 900.04 500.225 897.64 498.545 894.568C496.865 891.496 496.025 887.968 496.025 883.984V857.92C496.025 856.672 496.457 855.64 497.321 854.824C498.185 853.96 499.289 853.528 500.633 853.528C501.785 853.528 502.793 853.96 503.657 854.824C504.521 855.64 504.953 856.672 504.953 857.92V883.984C504.953 886.288 505.457 888.352 506.465 890.176C507.473 891.952 508.817 893.32 510.497 894.28C512.225 895.24 514.073 895.72 516.041 895.72C518.105 895.72 520.025 895.24 521.801 894.28C523.625 893.32 525.065 891.952 526.121 890.176C527.225 888.352 527.777 886.288 527.777 883.984V857.92C527.777 856.624 528.137 855.568 528.857 854.752C529.577 853.936 530.561 853.528 531.809 853.528ZM586.319 896.944C586.943 897.328 587.423 897.832 587.759 898.456C588.143 899.08 588.335 899.728 588.335 900.4C588.335 901.264 588.047 902.056 587.471 902.776C586.751 903.64 585.647 904.072 584.159 904.072C583.007 904.072 581.951 903.808 580.991 903.28C577.535 901.312 575.807 897.304 575.807 891.256C575.807 889.528 575.231 888.16 574.079 887.152C572.975 886.144 571.367 885.64 569.255 885.64H555.791V899.608C555.791 900.904 555.431 901.96 554.711 902.776C554.039 903.592 553.127 904 551.975 904C550.583 904 549.359 903.592 548.303 902.776C547.295 901.912 546.791 900.856 546.791 899.608V857.992C546.791 856.744 547.199 855.712 548.015 854.896C548.879 854.032 549.935 853.6 551.183 853.6H571.919C574.415 853.6 576.767 854.272 578.975 855.616C581.183 856.96 582.935 858.808 584.231 861.16C585.575 863.512 586.247 866.152 586.247 869.08C586.247 871.48 585.599 873.832 584.303 876.136C583.007 878.392 581.327 880.192 579.263 881.536C582.287 883.648 583.943 886.48 584.231 890.032C584.375 890.8 584.447 891.544 584.447 892.264C584.639 893.752 584.831 894.832 585.023 895.504C585.215 896.128 585.647 896.608 586.319 896.944ZM571.559 878.224C572.423 878.224 573.263 877.816 574.079 877C574.895 876.184 575.567 875.104 576.095 873.76C576.623 872.368 576.887 870.88 576.887 869.296C576.887 867.952 576.623 866.728 576.095 865.624C575.567 864.472 574.895 863.56 574.079 862.888C573.263 862.216 572.423 861.88 571.559 861.88H555.791V878.224H571.559ZM438.632 943.6C439.784 943.6 440.72 943.984 441.44 944.752C442.16 945.52 442.52 946.48 442.52 947.632V989.608C442.52 990.856 442.088 991.912 441.224 992.776C440.408 993.592 439.376 994 438.128 994C437.456 994 436.784 993.904 436.112 993.712C435.488 993.472 435.032 993.16 434.744 992.776L408.32 959.224V989.968C408.32 991.12 407.936 992.08 407.168 992.848C406.448 993.616 405.488 994 404.288 994C403.136 994 402.2 993.616 401.48 992.848C400.76 992.08 400.4 991.12 400.4 989.968V947.992C400.4 946.744 400.808 945.712 401.624 944.896C402.488 944.032 403.544 943.6 404.792 943.6C405.512 943.6 406.208 943.744 406.88 944.032C407.6 944.32 408.128 944.704 408.464 945.184L434.672 978.592V947.632C434.672 946.48 435.032 945.52 435.752 944.752C436.52 943.984 437.48 943.6 438.632 943.6ZM499.713 968.8C499.713 973.552 498.657 977.92 496.545 981.904C494.433 985.84 491.505 988.96 487.761 991.264C484.065 993.568 479.889 994.72 475.233 994.72C470.577 994.72 466.377 993.568 462.633 991.264C458.937 988.96 456.033 985.84 453.921 981.904C451.857 977.92 450.825 973.552 450.825 968.8C450.825 964.048 451.857 959.704 453.921 955.768C456.033 951.784 458.937 948.64 462.633 946.336C466.377 944.032 470.577 942.88 475.233 942.88C479.889 942.88 484.065 944.032 487.761 946.336C491.505 948.64 494.433 951.784 496.545 955.768C498.657 959.704 499.713 964.048 499.713 968.8ZM490.353 968.8C490.353 965.584 489.705 962.68 488.409 960.088C487.113 957.448 485.313 955.36 483.009 953.824C480.705 952.288 478.113 951.52 475.233 951.52C472.305 951.52 469.689 952.288 467.385 953.824C465.129 955.312 463.353 957.376 462.057 960.016C460.809 962.656 460.185 965.584 460.185 968.8C460.185 972.016 460.809 974.944 462.057 977.584C463.353 980.224 465.129 982.312 467.385 983.848C469.689 985.336 472.305 986.08 475.233 986.08C478.113 986.08 480.705 985.312 483.009 983.776C485.313 982.24 487.113 980.176 488.409 977.584C489.705 974.944 490.353 972.016 490.353 968.8ZM539.692 943.6C540.988 943.6 542.044 943.984 542.86 944.752C543.676 945.52 544.084 946.528 544.084 947.776C544.084 949.024 543.676 950.032 542.86 950.8C542.044 951.52 540.988 951.88 539.692 951.88H528.388V989.608C528.388 990.856 527.932 991.912 527.02 992.776C526.108 993.592 524.98 994 523.636 994C522.292 994 521.188 993.592 520.324 992.776C519.46 991.912 519.028 990.856 519.028 989.608V951.88H507.724C506.428 951.88 505.372 951.496 504.556 950.728C503.74 949.96 503.332 948.952 503.332 947.704C503.332 946.504 503.74 945.52 504.556 944.752C505.42 943.984 506.476 943.6 507.724 943.6H539.692ZM580.154 985.72C581.402 985.72 582.434 986.152 583.25 987.016C584.114 987.832 584.546 988.792 584.546 989.896C584.546 991.096 584.114 992.08 583.25 992.848C582.434 993.616 581.402 994 580.154 994H556.034C554.786 994 553.73 993.592 552.866 992.776C552.05 991.912 551.642 990.856 551.642 989.608V947.992C551.642 946.744 552.05 945.712 552.866 944.896C553.73 944.032 554.786 943.6 556.034 943.6H580.154C581.402 943.6 582.434 944.008 583.25 944.824C584.114 945.592 584.546 946.6 584.546 947.848C584.546 949.048 584.138 950.032 583.322 950.8C582.506 951.52 581.45 951.88 580.154 951.88H560.642V964.12H576.914C578.162 964.12 579.194 964.528 580.01 965.344C580.874 966.112 581.306 967.12 581.306 968.368C581.306 969.568 580.898 970.552 580.082 971.32C579.266 972.04 578.21 972.4 576.914 972.4H560.642V985.72H580.154ZM436.904 1033.6C438.248 1033.6 439.328 1034.01 440.144 1034.82C440.96 1035.64 441.368 1036.7 441.368 1037.99V1079.61C441.368 1080.86 440.936 1081.91 440.072 1082.78C439.208 1083.59 438.104 1084 436.76 1084C435.56 1084 434.528 1083.59 433.664 1082.78C432.8 1081.91 432.368 1080.86 432.368 1079.61V1062.83H409.4V1079.61C409.4 1080.86 408.944 1081.91 408.032 1082.78C407.12 1083.59 406.064 1084 404.864 1084C403.568 1084 402.488 1083.59 401.624 1082.78C400.808 1081.91 400.4 1080.86 400.4 1079.61V1037.99C400.4 1036.74 400.832 1035.71 401.696 1034.9C402.56 1034.03 403.664 1033.6 405.008 1033.6C406.208 1033.6 407.24 1034.03 408.104 1034.9C408.968 1035.71 409.4 1036.74 409.4 1037.99V1054.55H432.368V1037.99C432.368 1036.74 432.824 1035.71 433.736 1034.9C434.648 1034.03 435.704 1033.6 436.904 1033.6ZM480.662 1075.72C481.91 1075.72 482.942 1076.15 483.758 1077.02C484.622 1077.83 485.054 1078.79 485.054 1079.9C485.054 1081.1 484.622 1082.08 483.758 1082.85C482.942 1083.62 481.91 1084 480.662 1084H456.542C455.294 1084 454.238 1083.59 453.374 1082.78C452.558 1081.91 452.15 1080.86 452.15 1079.61V1037.99C452.15 1036.74 452.558 1035.71 453.374 1034.9C454.238 1034.03 455.294 1033.6 456.542 1033.6H480.662C481.91 1033.6 482.942 1034.01 483.758 1034.82C484.622 1035.59 485.054 1036.6 485.054 1037.85C485.054 1039.05 484.646 1040.03 483.83 1040.8C483.014 1041.52 481.958 1041.88 480.662 1041.88H461.15V1054.12H477.422C478.67 1054.12 479.702 1054.53 480.518 1055.34C481.382 1056.11 481.814 1057.12 481.814 1058.37C481.814 1059.57 481.406 1060.55 480.59 1061.32C479.774 1062.04 478.718 1062.4 477.422 1062.4H461.15V1075.72H480.662ZM532.881 1076.94C533.505 1077.33 533.985 1077.83 534.321 1078.46C534.705 1079.08 534.897 1079.73 534.897 1080.4C534.897 1081.26 534.609 1082.06 534.033 1082.78C533.313 1083.64 532.209 1084.07 530.721 1084.07C529.569 1084.07 528.513 1083.81 527.553 1083.28C524.097 1081.31 522.369 1077.3 522.369 1071.26C522.369 1069.53 521.793 1068.16 520.641 1067.15C519.537 1066.14 517.929 1065.64 515.817 1065.64H502.353V1079.61C502.353 1080.9 501.993 1081.96 501.273 1082.78C500.601 1083.59 499.689 1084 498.537 1084C497.145 1084 495.921 1083.59 494.865 1082.78C493.857 1081.91 493.353 1080.86 493.353 1079.61V1037.99C493.353 1036.74 493.761 1035.71 494.577 1034.9C495.441 1034.03 496.497 1033.6 497.745 1033.6H518.481C520.977 1033.6 523.329 1034.27 525.537 1035.62C527.745 1036.96 529.497 1038.81 530.793 1041.16C532.137 1043.51 532.809 1046.15 532.809 1049.08C532.809 1051.48 532.161 1053.83 530.865 1056.14C529.569 1058.39 527.889 1060.19 525.825 1061.54C528.849 1063.65 530.505 1066.48 530.793 1070.03C530.937 1070.8 531.009 1071.54 531.009 1072.26C531.201 1073.75 531.393 1074.83 531.585 1075.5C531.777 1076.13 532.209 1076.61 532.881 1076.94ZM518.121 1058.22C518.985 1058.22 519.825 1057.82 520.641 1057C521.457 1056.18 522.129 1055.1 522.657 1053.76C523.185 1052.37 523.449 1050.88 523.449 1049.3C523.449 1047.95 523.185 1046.73 522.657 1045.62C522.129 1044.47 521.457 1043.56 520.641 1042.89C519.825 1042.22 518.985 1041.88 518.121 1041.88H502.353V1058.22H518.121ZM571.295 1075.72C572.543 1075.72 573.575 1076.15 574.391 1077.02C575.255 1077.83 575.687 1078.79 575.687 1079.9C575.687 1081.1 575.255 1082.08 574.391 1082.85C573.575 1083.62 572.543 1084 571.295 1084H547.175C545.927 1084 544.871 1083.59 544.007 1082.78C543.191 1081.91 542.783 1080.86 542.783 1079.61V1037.99C542.783 1036.74 543.191 1035.71 544.007 1034.9C544.871 1034.03 545.927 1033.6 547.175 1033.6H571.295C572.543 1033.6 573.575 1034.01 574.391 1034.82C575.255 1035.59 575.687 1036.6 575.687 1037.85C575.687 1039.05 575.279 1040.03 574.463 1040.8C573.647 1041.52 572.591 1041.88 571.295 1041.88H551.783V1054.12H568.055C569.303 1054.12 570.335 1054.53 571.151 1055.34C572.015 1056.11 572.447 1057.12 572.447 1058.37C572.447 1059.57 572.039 1060.55 571.223 1061.32C570.407 1062.04 569.351 1062.4 568.055 1062.4H551.783V1075.72H571.295Z" fill="black"/>
<path d="M443.832 857.848C443.832 858.808 443.568 859.696 443.04 860.512L427.992 882.04V899.608C427.992 900.856 427.584 901.912 426.768 902.776C425.952 903.592 424.968 904 423.816 904C422.616 904 421.584 903.592 420.72 902.776C419.904 901.912 419.496 900.856 419.496 899.608V881.032L404.52 861.16C403.656 860.008 403.224 858.88 403.224 857.776C403.224 856.528 403.704 855.496 404.664 854.68C405.672 853.816 406.728 853.384 407.832 853.384C409.176 853.384 410.352 854.056 411.36 855.4L424.032 872.896L435.912 855.544C436.92 854.104 438.12 853.384 439.512 853.384C440.664 853.384 441.672 853.816 442.536 854.68C443.4 855.544 443.832 856.6 443.832 857.848ZM494.76 878.8C494.76 883.552 493.704 887.92 491.592 891.904C489.48 895.84 486.552 898.96 482.808 901.264C479.112 903.568 474.936 904.72 470.28 904.72C465.624 904.72 461.424 903.568 457.68 901.264C453.984 898.96 451.08 895.84 448.968 891.904C446.904 887.92 445.872 883.552 445.872 878.8C445.872 874.048 446.904 869.704 448.968 865.768C451.08 861.784 453.984 858.64 457.68 856.336C461.424 854.032 465.624 852.88 470.28 852.88C474.936 852.88 479.112 854.032 482.808 856.336C486.552 858.64 489.48 861.784 491.592 865.768C493.704 869.704 494.76 874.048 494.76 878.8ZM485.4 878.8C485.4 875.584 484.752 872.68 483.456 870.088C482.16 867.448 480.36 865.36 478.056 863.824C475.752 862.288 473.16 861.52 470.28 861.52C467.352 861.52 464.736 862.288 462.432 863.824C460.176 865.312 458.4 867.376 457.104 870.016C455.856 872.656 455.232 875.584 455.232 878.8C455.232 882.016 455.856 884.944 457.104 887.584C458.4 890.224 460.176 892.312 462.432 893.848C464.736 895.336 467.352 896.08 470.28 896.08C473.16 896.08 475.752 895.312 478.056 893.776C480.36 892.24 482.16 890.176 483.456 887.584C484.752 884.944 485.4 882.016 485.4 878.8ZM538.809 853.528C540.057 853.528 541.065 853.936 541.833 854.752C542.601 855.568 542.985 856.624 542.985 857.92V883.984C542.985 887.968 542.145 891.496 540.465 894.568C538.785 897.64 536.433 900.04 533.409 901.768C530.385 903.496 526.929 904.36 523.041 904.36C519.153 904.36 515.673 903.496 512.601 901.768C509.577 900.04 507.225 897.64 505.545 894.568C503.865 891.496 503.025 887.968 503.025 883.984V857.92C503.025 856.672 503.457 855.64 504.321 854.824C505.185 853.96 506.289 853.528 507.633 853.528C508.785 853.528 509.793 853.96 510.657 854.824C511.521 855.64 511.953 856.672 511.953 857.92V883.984C511.953 886.288 512.457 888.352 513.465 890.176C514.473 891.952 515.817 893.32 517.497 894.28C519.225 895.24 521.073 895.72 523.041 895.72C525.105 895.72 527.025 895.24 528.801 894.28C530.625 893.32 532.065 891.952 533.121 890.176C534.225 888.352 534.777 886.288 534.777 883.984V857.92C534.777 856.624 535.137 855.568 535.857 854.752C536.577 853.936 537.561 853.528 538.809 853.528ZM593.319 896.944C593.943 897.328 594.423 897.832 594.759 898.456C595.143 899.08 595.335 899.728 595.335 900.4C595.335 901.264 595.047 902.056 594.471 902.776C593.751 903.64 592.647 904.072 591.159 904.072C590.007 904.072 588.951 903.808 587.991 903.28C584.535 901.312 582.807 897.304 582.807 891.256C582.807 889.528 582.231 888.16 581.079 887.152C579.975 886.144 578.367 885.64 576.255 885.64H562.791V899.608C562.791 900.904 562.431 901.96 561.711 902.776C561.039 903.592 560.127 904 558.975 904C557.583 904 556.359 903.592 555.303 902.776C554.295 901.912 553.791 900.856 553.791 899.608V857.992C553.791 856.744 554.199 855.712 555.015 854.896C555.879 854.032 556.935 853.6 558.183 853.6H578.919C581.415 853.6 583.767 854.272 585.975 855.616C588.183 856.96 589.935 858.808 591.231 861.16C592.575 863.512 593.247 866.152 593.247 869.08C593.247 871.48 592.599 873.832 591.303 876.136C590.007 878.392 588.327 880.192 586.263 881.536C589.287 883.648 590.943 886.48 591.231 890.032C591.375 890.8 591.447 891.544 591.447 892.264C591.639 893.752 591.831 894.832 592.023 895.504C592.215 896.128 592.647 896.608 593.319 896.944ZM578.559 878.224C579.423 878.224 580.263 877.816 581.079 877C581.895 876.184 582.567 875.104 583.095 873.76C583.623 872.368 583.887 870.88 583.887 869.296C583.887 867.952 583.623 866.728 583.095 865.624C582.567 864.472 581.895 863.56 581.079 862.888C580.263 862.216 579.423 861.88 578.559 861.88H562.791V878.224H578.559ZM445.632 943.6C446.784 943.6 447.72 943.984 448.44 944.752C449.16 945.52 449.52 946.48 449.52 947.632V989.608C449.52 990.856 449.088 991.912 448.224 992.776C447.408 993.592 446.376 994 445.128 994C444.456 994 443.784 993.904 443.112 993.712C442.488 993.472 442.032 993.16 441.744 992.776L415.32 959.224V989.968C415.32 991.12 414.936 992.08 414.168 992.848C413.448 993.616 412.488 994 411.288 994C410.136 994 409.2 993.616 408.48 992.848C407.76 992.08 407.4 991.12 407.4 989.968V947.992C407.4 946.744 407.808 945.712 408.624 944.896C409.488 944.032 410.544 943.6 411.792 943.6C412.512 943.6 413.208 943.744 413.88 944.032C414.6 944.32 415.128 944.704 415.464 945.184L441.672 978.592V947.632C441.672 946.48 442.032 945.52 442.752 944.752C443.52 943.984 444.48 943.6 445.632 943.6ZM506.713 968.8C506.713 973.552 505.657 977.92 503.545 981.904C501.433 985.84 498.505 988.96 494.761 991.264C491.065 993.568 486.889 994.72 482.233 994.72C477.577 994.72 473.377 993.568 469.633 991.264C465.937 988.96 463.033 985.84 460.921 981.904C458.857 977.92 457.825 973.552 457.825 968.8C457.825 964.048 458.857 959.704 460.921 955.768C463.033 951.784 465.937 948.64 469.633 946.336C473.377 944.032 477.577 942.88 482.233 942.88C486.889 942.88 491.065 944.032 494.761 946.336C498.505 948.64 501.433 951.784 503.545 955.768C505.657 959.704 506.713 964.048 506.713 968.8ZM497.353 968.8C497.353 965.584 496.705 962.68 495.409 960.088C494.113 957.448 492.313 955.36 490.009 953.824C487.705 952.288 485.113 951.52 482.233 951.52C479.305 951.52 476.689 952.288 474.385 953.824C472.129 955.312 470.353 957.376 469.057 960.016C467.809 962.656 467.185 965.584 467.185 968.8C467.185 972.016 467.809 974.944 469.057 977.584C470.353 980.224 472.129 982.312 474.385 983.848C476.689 985.336 479.305 986.08 482.233 986.08C485.113 986.08 487.705 985.312 490.009 983.776C492.313 982.24 494.113 980.176 495.409 977.584C496.705 974.944 497.353 972.016 497.353 968.8ZM546.692 943.6C547.988 943.6 549.044 943.984 549.86 944.752C550.676 945.52 551.084 946.528 551.084 947.776C551.084 949.024 550.676 950.032 549.86 950.8C549.044 951.52 547.988 951.88 546.692 951.88H535.388V989.608C535.388 990.856 534.932 991.912 534.02 992.776C533.108 993.592 531.98 994 530.636 994C529.292 994 528.188 993.592 527.324 992.776C526.46 991.912 526.028 990.856 526.028 989.608V951.88H514.724C513.428 951.88 512.372 951.496 511.556 950.728C510.74 949.96 510.332 948.952 510.332 947.704C510.332 946.504 510.74 945.52 511.556 944.752C512.42 943.984 513.476 943.6 514.724 943.6H546.692ZM587.154 985.72C588.402 985.72 589.434 986.152 590.25 987.016C591.114 987.832 591.546 988.792 591.546 989.896C591.546 991.096 591.114 992.08 590.25 992.848C589.434 993.616 588.402 994 587.154 994H563.034C561.786 994 560.73 993.592 559.866 992.776C559.05 991.912 558.642 990.856 558.642 989.608V947.992C558.642 946.744 559.05 945.712 559.866 944.896C560.73 944.032 561.786 943.6 563.034 943.6H587.154C588.402 943.6 589.434 944.008 590.25 944.824C591.114 945.592 591.546 946.6 591.546 947.848C591.546 949.048 591.138 950.032 590.322 950.8C589.506 951.52 588.45 951.88 587.154 951.88H567.642V964.12H583.914C585.162 964.12 586.194 964.528 587.01 965.344C587.874 966.112 588.306 967.12 588.306 968.368C588.306 969.568 587.898 970.552 587.082 971.32C586.266 972.04 585.21 972.4 583.914 972.4H567.642V985.72H587.154ZM443.904 1033.6C445.248 1033.6 446.328 1034.01 447.144 1034.82C447.96 1035.64 448.368 1036.7 448.368 1037.99V1079.61C448.368 1080.86 447.936 1081.91 447.072 1082.78C446.208 1083.59 445.104 1084 443.76 1084C442.56 1084 441.528 1083.59 440.664 1082.78C439.8 1081.91 439.368 1080.86 439.368 1079.61V1062.83H416.4V1079.61C416.4 1080.86 415.944 1081.91 415.032 1082.78C414.12 1083.59 413.064 1084 411.864 1084C410.568 1084 409.488 1083.59 408.624 1082.78C407.808 1081.91 407.4 1080.86 407.4 1079.61V1037.99C407.4 1036.74 407.832 1035.71 408.696 1034.9C409.56 1034.03 410.664 1033.6 412.008 1033.6C413.208 1033.6 414.24 1034.03 415.104 1034.9C415.968 1035.71 416.4 1036.74 416.4 1037.99V1054.55H439.368V1037.99C439.368 1036.74 439.824 1035.71 440.736 1034.9C441.648 1034.03 442.704 1033.6 443.904 1033.6ZM487.662 1075.72C488.91 1075.72 489.942 1076.15 490.758 1077.02C491.622 1077.83 492.054 1078.79 492.054 1079.9C492.054 1081.1 491.622 1082.08 490.758 1082.85C489.942 1083.62 488.91 1084 487.662 1084H463.542C462.294 1084 461.238 1083.59 460.374 1082.78C459.558 1081.91 459.15 1080.86 459.15 1079.61V1037.99C459.15 1036.74 459.558 1035.71 460.374 1034.9C461.238 1034.03 462.294 1033.6 463.542 1033.6H487.662C488.91 1033.6 489.942 1034.01 490.758 1034.82C491.622 1035.59 492.054 1036.6 492.054 1037.85C492.054 1039.05 491.646 1040.03 490.83 1040.8C490.014 1041.52 488.958 1041.88 487.662 1041.88H468.15V1054.12H484.422C485.67 1054.12 486.702 1054.53 487.518 1055.34C488.382 1056.11 488.814 1057.12 488.814 1058.37C488.814 1059.57 488.406 1060.55 487.59 1061.32C486.774 1062.04 485.718 1062.4 484.422 1062.4H468.15V1075.72H487.662ZM539.881 1076.94C540.505 1077.33 540.985 1077.83 541.321 1078.46C541.705 1079.08 541.897 1079.73 541.897 1080.4C541.897 1081.26 541.609 1082.06 541.033 1082.78C540.313 1083.64 539.209 1084.07 537.721 1084.07C536.569 1084.07 535.513 1083.81 534.553 1083.28C531.097 1081.31 529.369 1077.3 529.369 1071.26C529.369 1069.53 528.793 1068.16 527.641 1067.15C526.537 1066.14 524.929 1065.64 522.817 1065.64H509.353V1079.61C509.353 1080.9 508.993 1081.96 508.273 1082.78C507.601 1083.59 506.689 1084 505.537 1084C504.145 1084 502.921 1083.59 501.865 1082.78C500.857 1081.91 500.353 1080.86 500.353 1079.61V1037.99C500.353 1036.74 500.761 1035.71 501.577 1034.9C502.441 1034.03 503.497 1033.6 504.745 1033.6H525.481C527.977 1033.6 530.329 1034.27 532.537 1035.62C534.745 1036.96 536.497 1038.81 537.793 1041.16C539.137 1043.51 539.809 1046.15 539.809 1049.08C539.809 1051.48 539.161 1053.83 537.865 1056.14C536.569 1058.39 534.889 1060.19 532.825 1061.54C535.849 1063.65 537.505 1066.48 537.793 1070.03C537.937 1070.8 538.009 1071.54 538.009 1072.26C538.201 1073.75 538.393 1074.83 538.585 1075.5C538.777 1076.13 539.209 1076.61 539.881 1076.94ZM525.121 1058.22C525.985 1058.22 526.825 1057.82 527.641 1057C528.457 1056.18 529.129 1055.1 529.657 1053.76C530.185 1052.37 530.449 1050.88 530.449 1049.3C530.449 1047.95 530.185 1046.73 529.657 1045.62C529.129 1044.47 528.457 1043.56 527.641 1042.89C526.825 1042.22 525.985 1041.88 525.121 1041.88H509.353V1058.22H525.121ZM578.295 1075.72C579.543 1075.72 580.575 1076.15 581.391 1077.02C582.255 1077.83 582.687 1078.79 582.687 1079.9C582.687 1081.1 582.255 1082.08 581.391 1082.85C580.575 1083.62 579.543 1084 578.295 1084H554.175C552.927 1084 551.871 1083.59 551.007 1082.78C550.191 1081.91 549.783 1080.86 549.783 1079.61V1037.99C549.783 1036.74 550.191 1035.71 551.007 1034.9C551.871 1034.03 552.927 1033.6 554.175 1033.6H578.295C579.543 1033.6 580.575 1034.01 581.391 1034.82C582.255 1035.59 582.687 1036.6 582.687 1037.85C582.687 1039.05 582.279 1040.03 581.463 1040.8C580.647 1041.52 579.591 1041.88 578.295 1041.88H558.783V1054.12H575.055C576.303 1054.12 577.335 1054.53 578.151 1055.34C579.015 1056.11 579.447 1057.12 579.447 1058.37C579.447 1059.57 579.039 1060.55 578.223 1061.32C577.407 1062.04 576.351 1062.4 575.055 1062.4H558.783V1075.72H578.295Z" fill="white"/>
<defs>
<filter id="filter0_d" x="0" y="0" width="1259" height="1329" filterUnits="userSpaceOnUse" color-interpolation-filters="sRGB">
<feFlood flood-opacity="0" result="BackgroundImageFix"/>
<feColorMatrix in="SourceAlpha" type="matrix" values="0 0 0 0 0 0 0 0 0 0 0 0 0 0 0 0 0 0 127 0"/>
<feOffset dy="17"/>
<feGaussianBlur stdDeviation="14"/>
<feColorMatrix type="matrix" values="0 0 0 0 0 0 0 0 0 0 0 0 0 0 0 0 0 0 0.25 0"/>
<feBlend mode="normal" in2="BackgroundImageFix" result="effect1_dropShadow"/>
<feBlend mode="normal" in="SourceGraphic" in2="effect1_dropShadow" result="shape"/>
</filter>
</defs>
</svg>
