<svg width="85" height="85" viewBox="0 0 85 85" fill="none" xmlns="http://www.w3.org/2000/svg">
<circle cx="42.5" cy="42.5" r="42.5" fill="#F96F6F"/>
<path d="M43.6846 21H41.0325C40.4921 21 40.054 21.4381 40.054 21.9784V33.5233H44.663V21.9784C44.663 21.4381 44.225 21 43.6846 21V21Z" fill="#BED8FB"/>
<path d="M43.9676 21H41.515C42.0554 21 42.4935 21.4381 42.4935 21.9784V33.5233H44.946V21.9784C44.946 21.4381 44.5079 21 43.9676 21V21Z" fill="#9DC6FB"/>
<path d="M55.3736 62.7946L55.6461 57.5916H29.0622L29.3346 62.7946C29.37 63.4702 29.9281 64 30.6048 64H54.1035C54.7801 64 55.3383 63.4703 55.3736 62.7946Z" fill="#365E7D"/>
<path d="M27.4329 26.4789L29.1851 59.9397H55.5231L57.2754 26.4789H27.4329Z" fill="#407093"/>
<path d="M42.5 53.8346C41.7833 53.8346 41.2022 53.2536 41.2022 52.5368V33.882C41.2022 33.1653 41.7832 32.5842 42.5 32.5842C43.2167 32.5842 43.7978 33.1652 43.7978 33.882V52.5368C43.7978 53.2536 43.2167 53.8346 42.5 53.8346V53.8346Z" fill="#80B4FB"/>
<path d="M34.2572 53.8346C33.5405 53.8346 32.9594 53.2536 32.9594 52.5368V33.882C32.9594 33.1653 33.5404 32.5842 34.2572 32.5842C34.9739 32.5842 35.555 33.1652 35.555 33.882V52.5368C35.555 53.2536 34.9739 53.8346 34.2572 53.8346Z" fill="#80B4FB"/>
<path d="M50.7428 53.8346C50.0261 53.8346 49.445 53.2536 49.445 52.5368V33.882C49.445 33.1653 50.026 32.5842 50.7428 32.5842C51.4595 32.5842 52.0406 33.1652 52.0406 33.882V52.5368C52.0406 53.2536 51.4595 53.8346 50.7428 53.8346Z" fill="#80B4FB"/>
<path d="M53.2401 57.5916L52.9677 62.7946C52.9323 63.4703 52.374 64 51.6975 64H54.3952C55.0718 64 55.63 63.4703 55.6654 62.7946L55.9378 57.5916H53.2401Z" fill="#2B4D66"/>
<path d="M54.8694 26.4789L53.1171 59.9397H55.8149L57.5671 26.4789H54.8694Z" fill="#365E7D"/>
<path d="M58.9386 26.8703V26.0876C58.9386 25.2771 58.2815 24.6201 57.4711 24.6201H27.2372C26.4267 24.6201 25.7696 25.2771 25.7696 26.0876V26.8703C25.7696 27.6809 26.4267 28.3379 27.2372 28.3379H57.4711C58.2816 28.3379 58.9386 27.6808 58.9386 26.8703Z" fill="#9DC6FB"/>
<path d="M57.7628 24.62H55.0651C55.8756 24.62 56.5326 25.2771 56.5326 26.0875V26.8703C56.5326 27.6808 55.8755 28.3378 55.0651 28.3378H57.7628C58.5734 28.3378 59.2304 27.6807 59.2304 26.8703V26.0875C59.2304 25.2771 58.5734 24.62 57.7628 24.62V24.62Z" fill="#80B4FB"/>
</svg>
